<svg xmlns="http://www.w3.org/2000/svg" viewBox="0 0 2048 494" role="img" aria-label="SEER">
  <defs>
    <linearGradient id="seerg" x1="0" y1="0" x2="1" y2="0.4">
      <stop offset="0" stop-color="#6179ff"/>
      <stop offset="1" stop-color="#8c61f2"/>
    </linearGradient>
  </defs>
  <path d="M 181 58.353 C 170.737 61.130, 139.879 78.874, 122.296 92.109 C 101.646 107.652, 89.792 119.827, 78.177 137.421 C 60.952 163.511, 53.489 198.019, 60.977 216.958 C 65.395 228.133, 75.431 238.010, 85.844 241.432 C 88.405 242.273, 146.195 253.091, 214.268 265.471 L 338.035 287.981 346.268 292.643 C 356.442 298.404, 370.190 307.634, 375.458 312.239 L 379.417 315.699 375.958 316.314 C 374.056 316.652, 309.725 325.256, 233 335.434 C 156.275 345.611, 91.025 354.671, 88 355.567 C 63.354 362.865, 51.158 391.067, 62.569 414.373 C 68.632 426.754, 82.623 436.451, 96.058 437.582 C 101.076 438.004, 141.349 432.930, 278.212 414.631 C 450.561 391.588, 454.050 391.078, 460.469 388.015 C 472.555 382.246, 481.827 369.872, 483.979 356.638 C 485.053 350.027, 483.910 334.729, 481.595 324.763 C 471.887 282.950, 438.276 246.440, 381.098 215.594 C 374.376 211.967, 366.767 208.324, 364.188 207.498 C 361.610 206.671, 317.200 198.337, 265.500 188.978 C 149.450 167.969, 160.590 170.199, 162.177 168.287 C 165.502 164.280, 186.768 149.508, 198 143.403 C 201.373 141.569, 206.060 141.482, 327.500 141 L 453.500 140.500 460.241 137.307 C 486.001 125.104, 492.519 91.232, 473.065 70.662 C 467.423 64.697, 460.345 60.444, 452.650 58.395 C 445.518 56.496, 188.010 56.456, 181 58.353 M 625 99 L 625 141 752 141 L 879 141 879 173 L 879 205 763.500 205 L 648 205 648 247.500 L 648 290 763.500 290 L 879 290 879 322 L 879 354 752 354 L 625 354 625 396 L 625 438 773 438 L 921 438 921 417.020 L 921 396.040 942.250 395.770 L 963.500 395.500 963.500 247.500 L 963.500 99.500 942.250 99.230 L 921 98.960 921 77.980 L 921 57 773 57 L 625 57 625 99 M 1058 78 L 1058 99 1037 99 L 1016 99 1016 247.500 L 1016 396 1037 396 L 1058 396 1058 417 L 1058 438 1229 438 L 1400 438 1400 396.003 L 1400 354.007 1250.250 353.753 L 1100.500 353.500 1100.236 321.750 L 1099.972 290 1215.986 290 L 1332 290 1332 247.500 L 1332 205 1215.986 205 L 1099.972 205 1100.236 173.250 L 1100.500 141.500 1250.250 141.247 L 1400 140.993 1400 98.997 L 1400 57 1229 57 L 1058 57 1058 78 M 1526.024 58.584 C 1511.699 62.484, 1500.310 74.029, 1496.552 88.460 C 1495.182 93.721, 1495 112.376, 1495 247.500 C 1495 414.903, 1494.723 406.730, 1500.739 416.997 C 1509.254 431.529, 1527.235 440.079, 1543.443 437.303 C 1557.698 434.861, 1568.454 426.928, 1574.734 414.225 L 1578.500 406.608 1579 351.054 L 1579.500 295.500 1582 295.741 C 1583.375 295.873, 1591.903 296.909, 1600.951 298.042 L 1617.402 300.102 1774.951 367.629 C 1861.603 404.769, 1935.200 435.852, 1938.500 436.701 C 1956.346 441.296, 1977.078 431.432, 1985.431 414.373 C 1994.632 395.581, 1988.707 372.805, 1971.557 361.050 C 1969.326 359.520, 1931.950 343.064, 1888.500 324.480 C 1845.050 305.896, 1809.072 290.311, 1808.550 289.846 C 1808.020 289.374, 1810.481 289, 1814.114 289 C 1827.310 289, 1853.278 284.623, 1869.500 279.663 C 1887.237 274.241, 1906.248 265.319, 1919.414 256.238 C 1931.860 247.653, 1947.652 231.180, 1954.359 219.783 C 1974.812 185.030, 1971.285 145.407, 1944.899 113.500 C 1924.966 89.396, 1890.939 70.737, 1851.802 62.448 C 1828.151 57.439, 1834.608 57.628, 1678 57.352 C 1550.741 57.127, 1530.781 57.289, 1526.024 58.584 M 1579.667 141.667 C 1579.300 142.033, 1579 156.433, 1579 173.667 L 1579 205 1696.250 204.994 C 1822.108 204.988, 1822.270 204.982, 1841.456 199.825 C 1863.141 193.996, 1883 181.230, 1883 173.119 C 1883 169.305, 1873.078 160.265, 1863.500 155.353 C 1848.015 147.412, 1832.464 143.486, 1810.569 141.991 C 1794.868 140.918, 1580.716 140.618, 1579.667 141.667" fill="url(#seerg)"/>
</svg>
